<svg viewBox="0 0 100 100" fill="none" xmlns="http://www.w3.org/2000/svg">
<path fill-rule="evenodd" clip-rule="evenodd" d="M99.9992 46.5286C99.9992 72.2258 77.6136 93.0574 49.9996 93.0574C44.8982 93.0574 39.9752 92.3464 35.3388 91.0252L18.8821 99.9998V82.9506C7.37564 74.426 0 61.279 0 46.5286C0 20.8316 22.3856 0 49.9996 0C77.6136 0 99.9992 20.8316 99.9992 46.5286Z" fill="white"/>
<path fill-rule="evenodd" clip-rule="evenodd" d="M36.2476 19.9525L31 61.8878L31.0434 61.9106L31.0278 61.9426L50.0208 72.0072L68.9966 61.9234L51.8244 26.6126C51.0948 25.1126 48.9576 25.112 48.2274 26.6118L46.3172 30.536L39.9768 19.223C39.033 17.5391 36.4874 18.0371 36.2476 19.9525Z" fill="#F2A93E"/>
<path fill-rule="evenodd" clip-rule="evenodd" d="M46.3185 30.5352L65.0087 63.8842L49.9995 71.8854L31.0449 61.9096L46.3185 30.5352Z" fill="#E68835"/>
<path d="M69.0107 61.9753L64.5913 31.0357C64.3543 29.3765 62.3039 28.7273 61.1551 29.9477L31.0107 61.9753L50.0107 71.9753L69.0107 61.9753Z" fill="#F7CD52"/>
</svg>
